# xmcd
#
# Track frame offsets:
#	150
#	18559
#	40787
#	56585
#	77734
#	93048
#	111687
#	127180
#	152635
#	175742
#	195157
#	219078
#	236593
#	254821
#	277171
#
# Disc length: 3836
#
# Revision: 1
# Processed by: cddbd v1.5.1PL0 Copyright (c) Steve Scherf et al.
# Submitted via: CDex 1.50
# Normalized: r0:DSETVAR1,TDELIM( - )
#
DISCID=cf0efa0f
DTITLE=Various Artist - After Work Jazz
DYEAR=2003
DGENRE=Jazz
TTITLE0=Till Broner - Blue Eyed Soul
TTITLE1=Miles davis - I Thought Abiut You
TTITLE2=Aretha Franklin - What Difference A Day Made
TTITLE3=Stan Getz - Blue Serge
TTITLE4=Steve Tyrell - It Had To Be You
TTITLE5=Carmen McRae - Miss Brown To You
TTITLE6=Billie Holiday - I'll Be around
TTITLE7=Martin Taylor - That's The Way Of The World
TTITLE8=Chriss Botti - Lisa
TTITLE9=Groover Washington Jr. - Soulful Strut
TTITLE10=Gato Barbieri - Mystica
TTITLE11=Joni Mitchell - Cherokee Koise
TTITLE12=Deodato - Spirit Of Summer
TTITLE13=Tuck and Patti - Heaven Down Here
TTITLE14=Jean-Pierre Garattoni and Peter Weber - Was Das Ein Tag
EXTD=YEAR: 2003
EXTT0=
EXTT1=
EXTT2=
EXTT3=
EXTT4=
EXTT5=
EXTT6=
EXTT7=
EXTT8=
EXTT9=
EXTT10=
EXTT11=
EXTT12=
EXTT13=
EXTT14=
PLAYORDER=
